<?xml version="1.0" encoding="UTF-8"?>
<!DOCTYPE svg PUBLIC "-//W3C//DTD SVG 1.1//EN" "http://www.w3.org/Graphics/SVG/1.1/DTD/svg11.dtd">
<!-- Creator: CorelDRAW 2019 (64 Bit) -->
<svg xmlns="http://www.w3.org/2000/svg" xml:space="preserve" width="2.7088mm" height="2.7086mm" version="1.1" style="shape-rendering:geometricPrecision; text-rendering:geometricPrecision; image-rendering:optimizeQuality; fill-rule:evenodd; clip-rule:evenodd"
viewBox="0 0 270.9 270.88"
 xmlns:xlink="http://www.w3.org/1999/xlink">
 <defs>
  <style type="text/css">
   <![CDATA[
    .fil0 {fill:none}
    .fil2 {fill:#2EA1FF}
    .fil1 {fill:#52BF5B}
    .fil3 {fill:#FFD152}
   ]]>
  </style>
 </defs>
 <g id="Camada_x0020_1">
  <metadata id="CorelCorpID_0Corel-Layer"/>
  <rect class="fil0" x="0" y="-0" width="270.9" height="270.88"/>
  <path class="fil1" d="M205.74 237.35l-140.39 0.11c1.69,-4.25 36.13,-63.51 37.53,-64.77 1.33,-3.74 5.85,-10.62 7.98,-14.34 2.81,-4.91 5.36,-9.19 8.13,-14.05 5.2,-9.13 10.77,-19.41 16.19,-28.05 -2.13,-5.44 -31.56,-53.84 -37.16,-64.89 -2.09,1.58 -23.59,40.12 -27.12,46.05 -13.91,23.37 -26.69,46.89 -40.39,69.99 -4.49,7.55 -2.54,5.81 7.53,23.51l27.13 46.6 140.57 -0.15z"/>
  <path class="fil2" d="M205.74 237.35l36.94 -64.67 -74.95 -0.2 -64.85 0.21c-1.4,1.26 -35.84,60.52 -37.53,64.77l140.39 -0.11z"/>
  <path class="fil3" d="M135.18 116.24l32.55 56.23 74.95 0.2 -69.56 -121.44 -75.11 0.11c5.6,11.05 35.03,59.45 37.16,64.89z"/>
 </g>
</svg>
