<?xml version="1.0" encoding="UTF-8"?>
<!DOCTYPE svg PUBLIC "-//W3C//DTD SVG 1.1//EN" "http://www.w3.org/Graphics/SVG/1.1/DTD/svg11.dtd">
<!-- Creator: CorelDRAW 2019 (64 Bit) -->
<svg xmlns="http://www.w3.org/2000/svg" xml:space="preserve" width="2.7088mm" height="2.7086mm" version="1.1" style="shape-rendering:geometricPrecision; text-rendering:geometricPrecision; image-rendering:optimizeQuality; fill-rule:evenodd; clip-rule:evenodd"
viewBox="0 0 270.9 270.88"
 xmlns:xlink="http://www.w3.org/1999/xlink">
 <defs>
  <style type="text/css">
   <![CDATA[
    .fil0 {fill:none}
    .fil2 {fill:#2EA1FF}
    .fil1 {fill:#52BF5B}
    .fil3 {fill:#FFD152}
   ]]>
  </style>
 </defs>
 <g id="Camada_x0020_1">
  <metadata id="CorelCorpID_0Corel-Layer"/>
  <rect class="fil0" x="0" y="-0" width="270.9" height="270.88"/>
  <path class="fil1" d="M215.32 250.03l-159.53 0.12c1.93,-4.83 41.06,-72.17 42.65,-73.61 1.52,-4.24 6.64,-12.07 9.06,-16.29 3.2,-5.58 6.1,-10.45 9.25,-15.97 5.91,-10.37 12.24,-22.06 18.39,-31.88 -2.41,-6.18 -35.86,-61.18 -42.23,-73.74 -2.37,1.79 -26.8,45.58 -30.81,52.32 -15.8,26.57 -30.32,53.29 -45.9,79.53 -5.1,8.58 -2.88,6.61 8.56,26.73l30.83 52.95 159.73 -0.17z"/>
  <path class="fil2" d="M215.32 250.03l41.98 -73.51 -85.17 -0.22 -73.7 0.24c-1.59,1.44 -40.72,68.78 -42.65,73.61l159.53 -0.12z"/>
  <path class="fil3" d="M135.14 112.4l36.99 63.9 85.17 0.22 -79.04 -137.99 -85.36 0.13c6.37,12.55 39.82,67.55 42.23,73.74z"/>
 </g>
</svg>
