<?xml version="1.0" encoding="UTF-8"?>
<!DOCTYPE svg PUBLIC "-//W3C//DTD SVG 1.1//EN" "http://www.w3.org/Graphics/SVG/1.1/DTD/svg11.dtd">
<!-- Creator: CorelDRAW 2019 (64 Bit) -->
<svg xmlns="http://www.w3.org/2000/svg" xml:space="preserve" width="2.7092mm" height="2.7093mm" version="1.1" style="shape-rendering:geometricPrecision; text-rendering:geometricPrecision; image-rendering:optimizeQuality; fill-rule:evenodd; clip-rule:evenodd"
viewBox="0 0 270.94 270.95"
 xmlns:xlink="http://www.w3.org/1999/xlink">
 <defs>
  <style type="text/css">
   <![CDATA[
    .fil0 {fill:none}
    .fil2 {fill:#2EA1FF}
    .fil1 {fill:#52BF5B}
    .fil3 {fill:#FFD152}
   ]]>
  </style>
 </defs>
 <g id="Camada_x0020_1">
  <metadata id="CorelCorpID_0Corel-Layer"/>
  <rect class="fil0" x="-0" y="0" width="270.94" height="270.95"/>
  <path class="fil1" d="M224.27 261.9l-177.37 0.13c2.14,-5.37 45.65,-80.25 47.42,-81.85 1.68,-4.72 7.38,-13.42 10.08,-18.11 3.56,-6.21 6.78,-11.62 10.27,-17.76 6.57,-11.53 13.61,-24.53 20.45,-35.44 -2.68,-6.88 -39.87,-68.05 -46.95,-82.01 -2.64,2 -29.8,50.69 -34.26,58.19 -17.57,29.54 -33.71,59.26 -51.03,88.43 -5.67,9.54 -3.2,7.35 9.51,29.72l34.29 58.88 177.59 -0.19z"/>
  <path class="fil2" d="M224.27 261.9l46.68 -81.73 -94.7 -0.25 -81.94 0.26c-1.77,1.6 -45.28,76.48 -47.42,81.85l177.37 -0.13z"/>
  <path class="fil3" d="M135.12 108.87l41.13 71.06 94.7 0.25 -87.88 -153.44 -94.91 0.13c7.08,13.96 44.27,75.13 46.95,82.01z"/>
 </g>
</svg>
