<?xml version="1.0" encoding="UTF-8"?>
<!DOCTYPE svg PUBLIC "-//W3C//DTD SVG 1.1//EN" "http://www.w3.org/Graphics/SVG/1.1/DTD/svg11.dtd">
<!-- Creator: CorelDRAW 2019 (64 Bit) -->
<svg xmlns="http://www.w3.org/2000/svg" xml:space="preserve" width="2.7092mm" height="2.7093mm" version="1.1" style="shape-rendering:geometricPrecision; text-rendering:geometricPrecision; image-rendering:optimizeQuality; fill-rule:evenodd; clip-rule:evenodd"
viewBox="0 0 270.94 270.95"
 xmlns:xlink="http://www.w3.org/1999/xlink">
 <defs>
  <style type="text/css">
   <![CDATA[
    .fil0 {fill:none}
    .fil2 {fill:#2EA1FF}
    .fil1 {fill:#52BF5B}
    .fil4 {fill:#999999}
    .fil3 {fill:#FFD152}
    .fil5 {fill:white}
   ]]>
  </style>
 </defs>
 <g id="Camada_x0020_1">
  <metadata id="CorelCorpID_0Corel-Layer"/>
  <rect class="fil0" x="-0" y="0" width="270.94" height="270.95"/>
  <path class="fil1" d="M215.24 249.89l-159.22 0.13c1.93,-4.82 40.98,-72.04 42.57,-73.48 1.51,-4.23 6.63,-12.04 9.05,-16.26 3.19,-5.57 6.08,-10.43 9.22,-15.93 5.9,-10.36 12.22,-22.03 18.36,-31.82 -2.41,-6.17 -35.79,-61.07 -42.14,-73.61 -2.38,1.79 -26.76,45.5 -30.76,52.23 -15.77,26.51 -30.26,53.19 -45.81,79.38 -5.08,8.56 -2.87,6.59 8.55,26.67l30.77 52.85 159.41 -0.17z"/>
  <path class="fil2" d="M198.64 249.89l37.54 -73.36 -76.15 -0.22 -65.88 0.23c-1.43,1.44 -36.41,68.66 -38.14,73.48l142.63 -0.13z"/>
  <path class="fil3" d="M135.22 112.53l36.92 63.78 85 0.22 -78.89 -137.73 -85.18 0.12c6.35,12.53 39.73,67.43 42.14,73.61z"/>
  <circle class="fil4" cx="197.09" cy="189.42" r="61.06"/>
  <path class="fil5" d="M178.26 200.14c0.33,-0.55 1.23,-1.3 1.77,-1.84 1.09,-1.12 4.58,-4.48 5.07,-5.2l-22.25 -0.02c0,2.7 -0.17,21.53 0.08,22.5 0.4,-0.64 2.8,-2.88 3.52,-3.61 0.67,-0.68 3.02,-3.25 3.66,-3.52 0.25,0.39 0.37,0.49 0.68,0.87 0.36,0.44 0.22,0.38 0.74,0.84 0.56,0.51 0.92,1.06 1.54,1.62 1.14,1.05 2.14,2.06 3.39,2.93 2.56,1.78 4.7,3.08 8.06,4.42 6.57,2.6 14.53,2.76 21.47,0.75 4.65,-1.35 8.65,-3.81 12.21,-6.72 0.31,-0.25 0.44,-0.51 0.77,-0.8 1.64,-1.46 1.45,-1.53 2.28,-2.33 3.84,-3.68 7.39,-11.63 8.13,-16.95l-11.54 0c-0.36,1.97 -1.52,4.38 -2.41,5.91 -1.16,1.99 -2.28,3.27 -3.64,4.66 -7.51,7.72 -20.13,8.44 -28.63,1.78 -0.88,-0.69 -2.48,-2.09 -3.14,-2.92 -0.64,-0.82 -1.2,-1.37 -1.76,-2.37z"/>
  <path class="fil5" d="M163.39 181.77l11.59 0.01c-0.03,-1.31 1.7,-4.81 2.3,-5.83 1.27,-2.17 2.02,-3 3.63,-4.68 2.27,-2.36 6.13,-4.92 10.68,-5.9 5.11,-1.09 9.75,-0.43 14.08,1.58 1.36,0.63 3.23,1.85 4.41,2.82 0.23,0.19 0.31,0.31 0.55,0.5 1.37,1.1 3.04,2.94 3.89,4.46l-6.87 7 22.28 0.05 0 -22.51c-1.32,1.14 -6.37,6.73 -7.25,7.13 -0.28,-0.42 -0.97,-1.33 -1.33,-1.66 -0.64,-0.61 -0.94,-1.04 -1.55,-1.61 -3.56,-3.29 -6.45,-5.41 -11.44,-7.36 -9.73,-3.82 -21.26,-2.55 -30.01,3.13 -1.41,0.92 -2.38,1.75 -3.63,2.68 -0.39,0.3 -0.44,0.46 -0.79,0.79 -0.29,0.28 -0.54,0.47 -0.85,0.74 -0.71,0.62 -0.91,1.02 -1.51,1.65 -3.21,3.33 -7.43,10.48 -8.18,17.01z"/>
  <rect class="fil0" x="137.53" y="186.77" width="120.63" height="63.71"/>
 </g>
</svg>
