<?xml version="1.0" encoding="UTF-8"?>
<!DOCTYPE svg PUBLIC "-//W3C//DTD SVG 1.1//EN" "http://www.w3.org/Graphics/SVG/1.1/DTD/svg11.dtd">
<!-- Creator: CorelDRAW 2019 (64 Bit) -->
<svg xmlns="http://www.w3.org/2000/svg" xml:space="preserve" width="2.7088mm" height="2.7086mm" version="1.1" style="shape-rendering:geometricPrecision; text-rendering:geometricPrecision; image-rendering:optimizeQuality; fill-rule:evenodd; clip-rule:evenodd"
viewBox="0 0 270.9 270.88"
 xmlns:xlink="http://www.w3.org/1999/xlink">
 <defs>
  <style type="text/css">
   <![CDATA[
    .fil0 {fill:none}
    .fil2 {fill:#2EA1FF}
    .fil1 {fill:#52BF5B}
    .fil3 {fill:#FFD152}
   ]]>
  </style>
 </defs>
 <g id="Camada_x0020_1">
  <metadata id="CorelCorpID_0Corel-Layer"/>
  <rect class="fil0" x="0" y="-0" width="270.9" height="270.88"/>
  <path class="fil1" d="M208.93 241.57l-146.76 0.11c1.77,-4.44 37.77,-66.39 39.23,-67.71 1.4,-3.9 6.11,-11.1 8.34,-14.98 2.95,-5.14 5.61,-9.62 8.5,-14.69 5.44,-9.54 11.26,-20.3 16.92,-29.33 -2.22,-5.69 -32.99,-56.28 -38.84,-67.84 -2.19,1.65 -24.66,41.94 -28.35,48.14 -14.54,24.43 -27.89,49.02 -42.22,73.16 -4.69,7.89 -2.65,6.08 7.87,24.58l28.37 48.71 146.94 -0.15z"/>
  <path class="fil2" d="M208.93 241.57l38.62 -67.61 -78.36 -0.2 -67.8 0.21c-1.46,1.32 -37.46,63.27 -39.23,67.71l146.76 -0.11z"/>
  <path class="fil3" d="M135.16 114.96l34.03 58.79 78.36 0.2 -72.72 -126.94 -78.52 0.11c5.85,11.55 36.62,62.14 38.84,67.84z"/>
 </g>
</svg>
