<?xml version="1.0" encoding="UTF-8"?>
<!DOCTYPE svg PUBLIC "-//W3C//DTD SVG 1.1//EN" "http://www.w3.org/Graphics/SVG/1.1/DTD/svg11.dtd">
<!-- Creator: CorelDRAW 2019 (64 Bit) -->
<svg xmlns="http://www.w3.org/2000/svg" xml:space="preserve" width="1.8705mm" height="1.8627mm" version="1.1" style="shape-rendering:geometricPrecision; text-rendering:geometricPrecision; image-rendering:optimizeQuality; fill-rule:evenodd; clip-rule:evenodd"
viewBox="0 0 188.23 187.44"
 xmlns:xlink="http://www.w3.org/1999/xlink">
 <defs>
  <style type="text/css">
   <![CDATA[
    .fil0 {fill:none}
    .fil2 {fill:#2EA1FF}
    .fil1 {fill:#52BF5B}
    .fil4 {fill:#999999}
    .fil3 {fill:#FFD152}
    .fil5 {fill:white}
   ]]>
  </style>
 </defs>
 <g id="Camada_x0020_1">
  <metadata id="CorelCorpID_0Corel-Layer"/>
  <rect class="fil0" x="-0" y="0" width="187.43" height="187.44"/>
  <path class="fil1" d="M155.14 181.18l-122.71 0.09c1.49,-3.71 31.59,-55.52 32.82,-56.62 1.17,-3.26 5.1,-9.28 6.97,-12.53 2.46,-4.3 4.69,-8.04 7.1,-12.29 4.55,-7.98 9.42,-16.97 14.15,-24.52 -1.85,-4.75 -27.58,-47.06 -32.48,-56.72 -1.82,1.38 -20.62,35.07 -23.7,40.26 -12.16,20.43 -23.33,41 -35.31,61.17 -3.92,6.6 -2.21,5.08 6.58,20.56l23.72 40.73 122.86 -0.13z"/>
  <path class="fil2" d="M142.36 181.18l28.93 -56.54 -58.69 -0.16 -50.78 0.17c-1.1,1.11 -28.07,52.91 -29.39,56.62l109.93 -0.09z"/>
  <path class="fil3" d="M93.47 75.31l28.46 49.17 65.51 0.16 -60.8 -106.14 -65.65 0.09c4.9,9.66 30.63,51.98 32.48,56.72z"/>
  <circle class="fil4" cx="141.16" cy="134.57" r="47.06"/>
  <path class="fil5" d="M126.65 142.84c0.25,-0.43 0.95,-1.01 1.36,-1.42 0.85,-0.87 3.53,-3.45 3.91,-4.01l-17.16 -0.02c0,2.08 -0.13,16.59 0.07,17.34 0.3,-0.49 2.15,-2.21 2.71,-2.78 0.52,-0.52 2.32,-2.51 2.82,-2.71 0.2,0.29 0.29,0.37 0.53,0.66 0.27,0.34 0.16,0.29 0.56,0.64 0.43,0.39 0.71,0.83 1.19,1.26 0.89,0.81 1.65,1.58 2.62,2.24 1.97,1.38 3.62,2.38 6.22,3.41 5.05,2.01 11.19,2.12 16.54,0.58 3.58,-1.04 6.66,-2.94 9.41,-5.18 0.24,-0.19 0.34,-0.39 0.59,-0.61 1.27,-1.13 1.12,-1.18 1.76,-1.8 2.95,-2.84 5.7,-8.97 6.26,-13.06l-8.9 0c-0.27,1.52 -1.17,3.37 -1.85,4.56 -0.9,1.53 -1.75,2.52 -2.81,3.59 -5.79,5.95 -15.52,6.5 -22.07,1.37 -0.67,-0.53 -1.91,-1.61 -2.42,-2.25 -0.49,-0.62 -0.93,-1.05 -1.36,-1.82z"/>
  <path class="fil5" d="M115.19 128.68l8.94 0.01c-0.03,-1.02 1.31,-3.71 1.77,-4.5 0.98,-1.67 1.55,-2.31 2.79,-3.6 1.75,-1.83 4.73,-3.79 8.24,-4.55 3.93,-0.85 7.52,-0.33 10.85,1.22 1.05,0.48 2.5,1.42 3.4,2.17 0.18,0.14 0.24,0.24 0.42,0.38 1.06,0.85 2.34,2.26 3,3.44l-5.29 5.39 17.17 0.04 0 -17.35c-1.02,0.88 -4.9,5.18 -5.58,5.49 -0.21,-0.33 -0.74,-1.03 -1.02,-1.29 -0.5,-0.46 -0.73,-0.79 -1.21,-1.24 -2.74,-2.54 -4.97,-4.17 -8.82,-5.68 -7.5,-2.94 -16.38,-1.96 -23.12,2.42 -1.09,0.71 -1.84,1.35 -2.8,2.07 -0.3,0.22 -0.34,0.34 -0.61,0.6 -0.22,0.21 -0.41,0.36 -0.65,0.56 -0.54,0.48 -0.69,0.79 -1.17,1.28 -2.47,2.57 -5.73,8.08 -6.3,13.11z"/>
  <rect class="fil0" x="95.26" y="132.53" width="92.97" height="49.1"/>
 </g>
</svg>
