<?xml version="1.0" encoding="UTF-8"?>
<!DOCTYPE svg PUBLIC "-//W3C//DTD SVG 1.1//EN" "http://www.w3.org/Graphics/SVG/1.1/DTD/svg11.dtd">
<!-- Creator: CorelDRAW 2019 (64 Bit) -->
<svg xmlns="http://www.w3.org/2000/svg" xml:space="preserve" width="1.8628mm" height="1.8623mm" version="1.1" style="shape-rendering:geometricPrecision; text-rendering:geometricPrecision; image-rendering:optimizeQuality; fill-rule:evenodd; clip-rule:evenodd"
viewBox="0 0 186.3 186.25"
 xmlns:xlink="http://www.w3.org/1999/xlink">
 <defs>
  <style type="text/css">
   <![CDATA[
    .fil0 {fill:none}
    .fil2 {fill:#2EA1FF}
    .fil1 {fill:#52BF5B}
    .fil3 {fill:#FFD152}
   ]]>
  </style>
 </defs>
 <g id="Camada_x0020_1">
  <metadata id="CorelCorpID_0Corel-Layer"/>
  <rect class="fil0" x="0.02" y="0" width="186.26" height="186.25"/>
  <path class="fil1" d="M154.2 180.03l-121.94 0.09c1.47,-3.69 31.38,-55.16 32.6,-56.26 1.16,-3.25 5.08,-9.23 6.93,-12.46 2.45,-4.26 4.66,-7.98 7.06,-12.2 4.52,-7.93 9.36,-16.86 14.06,-24.36 -1.84,-4.73 -27.41,-46.78 -32.27,-56.37 -1.82,1.37 -20.49,34.84 -23.56,39.99 -12.07,20.31 -23.17,40.73 -35.08,60.79 -3.9,6.56 -2.2,5.05 6.54,20.43l23.57 40.47 122.09 -0.13z"/>
  <path class="fil2" d="M154.2 180.03l32.09 -56.18 -65.1 -0.17 -56.34 0.18c-1.22,1.1 -31.13,52.57 -32.6,56.26l121.94 -0.09z"/>
  <path class="fil3" d="M92.91 74.84l28.28 48.85 65.1 0.17 -60.42 -105.48 -65.24 0.1c4.86,9.59 30.43,51.64 32.27,56.37z"/>
 </g>
</svg>
