<?xml version="1.0" encoding="UTF-8"?>
<!DOCTYPE svg PUBLIC "-//W3C//DTD SVG 1.1//EN" "http://www.w3.org/Graphics/SVG/1.1/DTD/svg11.dtd">
<!-- Creator: CorelDRAW 2019 (64 Bit) -->
<svg xmlns="http://www.w3.org/2000/svg" xml:space="preserve" width="2.7092mm" height="2.7093mm" version="1.1" style="shape-rendering:geometricPrecision; text-rendering:geometricPrecision; image-rendering:optimizeQuality; fill-rule:evenodd; clip-rule:evenodd"
viewBox="0 0 270.94 270.95"
 xmlns:xlink="http://www.w3.org/1999/xlink">
 <defs>
  <style type="text/css">
   <![CDATA[
    .fil0 {fill:none}
    .fil2 {fill:#2EA1FF}
    .fil1 {fill:#52BF5B}
    .fil4 {fill:#999999}
    .fil3 {fill:#FFD152}
    .fil5 {fill:white}
   ]]>
  </style>
 </defs>
 <g id="Camada_x0020_1">
  <metadata id="CorelCorpID_0Corel-Layer"/>
  <rect class="fil0" x="-0" y="0" width="270.94" height="270.95"/>
  <path class="fil1" d="M208.9 241.47l-146.47 0.11c1.77,-4.43 37.7,-66.26 39.16,-67.58 1.39,-3.9 6.1,-11.08 8.32,-14.96 2.94,-5.12 5.6,-9.59 8.49,-14.66 5.42,-9.53 11.24,-20.26 16.88,-29.27 -2.21,-5.68 -32.92,-56.19 -38.77,-67.71 -2.18,1.64 -24.61,41.86 -28.29,48.05 -14.51,24.39 -27.84,48.93 -42.14,73.03 -4.68,7.88 -2.64,6.06 7.86,24.54l28.31 48.62 146.65 -0.16z"/>
  <path class="fil2" d="M193.63 241.47l34.54 -67.48 -70.06 -0.21 -60.61 0.22c-1.31,1.32 -33.5,63.15 -35.08,67.58l131.21 -0.11z"/>
  <path class="fil3" d="M135.28 115.1l33.97 58.67 78.2 0.21 -72.57 -126.71 -78.38 0.11c5.85,11.52 36.56,62.03 38.77,67.71z"/>
  <ellipse class="fil4" cx="192.2" cy="185.83" rx="56.18" ry="56.17"/>
  <path class="fil5" d="M174.88 195.7c0.31,-0.51 1.14,-1.2 1.63,-1.7 1,-1.03 4.21,-4.12 4.66,-4.78l-20.47 -0.02c0,2.49 -0.15,19.81 0.08,20.7 0.36,-0.59 2.57,-2.65 3.24,-3.32 0.61,-0.62 2.77,-2.99 3.36,-3.23 0.24,0.35 0.35,0.44 0.63,0.79 0.33,0.41 0.2,0.35 0.68,0.78 0.51,0.47 0.85,0.97 1.41,1.49 1.06,0.96 1.97,1.89 3.12,2.69 2.36,1.63 4.33,2.83 7.42,4.06 6.04,2.4 13.37,2.54 19.75,0.7 4.29,-1.24 7.96,-3.51 11.24,-6.18 0.28,-0.24 0.4,-0.48 0.7,-0.74 1.52,-1.34 1.34,-1.41 2.1,-2.14 3.53,-3.39 6.8,-10.71 7.48,-15.6l-10.62 0c-0.33,1.82 -1.39,4.03 -2.21,5.44 -1.07,1.83 -2.1,3 -3.35,4.29 -6.91,7.09 -18.52,7.76 -26.34,1.63 -0.81,-0.63 -2.28,-1.92 -2.89,-2.69 -0.59,-0.75 -1.1,-1.25 -1.62,-2.17z"/>
  <path class="fil5" d="M161.2 178.8l10.66 0.01c-0.03,-1.21 1.57,-4.43 2.12,-5.37 1.16,-1.99 1.85,-2.76 3.34,-4.3 2.09,-2.18 5.64,-4.53 9.83,-5.43 4.69,-1.01 8.97,-0.4 12.95,1.45 1.25,0.58 2.97,1.71 4.06,2.6 0.21,0.17 0.29,0.29 0.5,0.46 1.26,1.01 2.8,2.7 3.58,4.1l-6.32 6.44 20.5 0.05 0 -20.71c-1.22,1.05 -5.86,6.19 -6.67,6.56 -0.26,-0.39 -0.89,-1.23 -1.22,-1.53 -0.59,-0.56 -0.87,-0.95 -1.44,-1.48 -3.26,-3.02 -5.93,-4.98 -10.52,-6.77 -8.95,-3.51 -19.55,-2.35 -27.6,2.88 -1.3,0.85 -2.19,1.61 -3.35,2.47 -0.36,0.26 -0.4,0.42 -0.72,0.72 -0.27,0.26 -0.5,0.44 -0.78,0.68 -0.66,0.57 -0.84,0.94 -1.39,1.52 -2.96,3.06 -6.84,9.64 -7.53,15.65z"/>
  <rect class="fil0" x="137.41" y="183.4" width="110.98" height="58.61"/>
 </g>
</svg>
