<?xml version="1.0" encoding="UTF-8"?>
<!DOCTYPE svg PUBLIC "-//W3C//DTD SVG 1.1//EN" "http://www.w3.org/Graphics/SVG/1.1/DTD/svg11.dtd">
<!-- Creator: CorelDRAW 2019 (64 Bit) -->
<svg xmlns="http://www.w3.org/2000/svg" xml:space="preserve" width="2.7092mm" height="2.7093mm" version="1.1" style="shape-rendering:geometricPrecision; text-rendering:geometricPrecision; image-rendering:optimizeQuality; fill-rule:evenodd; clip-rule:evenodd"
viewBox="0 0 270.94 270.95"
 xmlns:xlink="http://www.w3.org/1999/xlink">
 <defs>
  <style type="text/css">
   <![CDATA[
    .fil0 {fill:none}
    .fil2 {fill:#2EA1FF}
    .fil1 {fill:#52BF5B}
    .fil4 {fill:#999999}
    .fil3 {fill:#FFD152}
    .fil5 {fill:white}
   ]]>
  </style>
 </defs>
 <g id="Camada_x0020_1">
  <metadata id="CorelCorpID_0Corel-Layer"/>
  <rect class="fil0" x="-0" y="0" width="270.94" height="270.95"/>
  <path class="fil1" d="M205.74 237.26l-140.12 0.11c1.7,-4.24 36.07,-63.38 37.47,-64.65 1.33,-3.72 5.83,-10.6 7.96,-14.31 2.81,-4.9 5.35,-9.17 8.11,-14.02 5.19,-9.11 10.75,-19.38 16.16,-28 -2.12,-5.43 -31.5,-53.74 -37.09,-64.77 -2.09,1.58 -23.54,40.04 -27.06,45.96 -13.88,23.34 -26.63,46.81 -40.32,69.86 -4.47,7.54 -2.52,5.8 7.52,23.47l27.08 46.51 140.29 -0.15z"/>
  <path class="fil2" d="M191.13 237.26l33.03 -64.55 -67 -0.19 -57.98 0.2c-1.25,1.27 -32.04,60.41 -33.56,64.65l125.52 -0.11z"/>
  <path class="fil3" d="M135.32 116.38l32.48 56.13 74.81 0.19 -69.42 -121.21 -74.97 0.11c5.59,11.03 34.97,59.34 37.09,64.77z"/>
  <ellipse class="fil4" cx="189.76" cy="184.04" rx="53.74" ry="53.73"/>
  <path class="fil5" d="M173.2 193.48c0.29,-0.49 1.08,-1.14 1.55,-1.62 0.96,-0.99 4.03,-3.94 4.46,-4.57l-19.58 -0.03c0,2.38 -0.15,18.95 0.07,19.81 0.35,-0.57 2.47,-2.54 3.1,-3.18 0.59,-0.6 2.66,-2.86 3.22,-3.09 0.22,0.34 0.33,0.42 0.6,0.75 0.32,0.4 0.19,0.34 0.65,0.75 0.49,0.45 0.82,0.93 1.35,1.42 1.01,0.93 1.89,1.81 2.99,2.58 2.25,1.56 4.13,2.71 7.1,3.89 5.77,2.29 12.78,2.43 18.89,0.66 4.09,-1.19 7.61,-3.35 10.74,-5.91 0.28,-0.22 0.39,-0.45 0.68,-0.71 1.45,-1.28 1.28,-1.34 2.01,-2.05 3.37,-3.24 6.5,-10.23 7.15,-14.91l-10.15 -0.01c-0.32,1.74 -1.34,3.86 -2.13,5.21 -1.01,1.74 -2,2.87 -3.2,4.1 -6.61,6.79 -17.71,7.42 -25.19,1.56 -0.78,-0.61 -2.19,-1.84 -2.76,-2.57 -0.57,-0.72 -1.06,-1.2 -1.55,-2.08z"/>
  <path class="fil5" d="M160.11 177.31l10.2 0.01c-0.03,-1.15 1.5,-4.23 2.02,-5.13 1.12,-1.91 1.78,-2.64 3.19,-4.12 2,-2.08 5.4,-4.32 9.41,-5.19 4.49,-0.96 8.58,-0.38 12.38,1.39 1.2,0.56 2.85,1.63 3.89,2.48 0.2,0.17 0.27,0.28 0.48,0.44 1.21,0.97 2.67,2.59 3.42,3.93l-6.05 6.16 19.61 0.04 0 -19.8c-1.16,1 -5.6,5.92 -6.37,6.27 -0.25,-0.38 -0.86,-1.17 -1.17,-1.47 -0.57,-0.53 -0.83,-0.91 -1.37,-1.41 -3.13,-2.89 -5.68,-4.76 -10.07,-6.48 -8.56,-3.36 -18.7,-2.24 -26.4,2.76 -1.25,0.81 -2.1,1.54 -3.2,2.36 -0.35,0.26 -0.39,0.4 -0.7,0.69 -0.25,0.25 -0.47,0.42 -0.74,0.65 -0.63,0.55 -0.8,0.9 -1.33,1.45 -2.83,2.93 -6.54,9.23 -7.2,14.97z"/>
  <rect class="fil0" x="137.35" y="181.71" width="106.16" height="56.06"/>
 </g>
</svg>
